<?xml version="1.0" encoding="UTF-8"?>
<svg width="91px" height="90px" viewBox="0 0 91 90" version="1.1" xmlns="http://www.w3.org/2000/svg" xmlns:xlink="http://www.w3.org/1999/xlink">
    <g stroke="none" stroke-width="1" fill="none" fill-rule="evenodd">
        <path d="M72.24,4.57 L53.42,32.5 C52.7873444,33.336302 52.9080544,34.5192463 53.6965878,35.2105272 C54.4851212,35.9018081 55.6736888,35.866664 56.42,35.13 L74.94,19.13 C75.1582596,18.9298492 75.4748271,18.8790945 75.7447183,19.0009809 C76.0146096,19.1228672 76.1858447,19.3939199 76.18,19.69 L76.18,69.98 C76.1769151,70.2926548 75.980189,70.5705926 75.6863438,70.6774455 C75.3924986,70.7842983 75.0631937,70.6976444 74.86,70.46 L18.86,3.46 C17.0503499,1.28270407 14.3711103,0.0162875344 11.54,-0.000187961334 L9.59,-0.000187961334 C4.29358925,-0.000187961334 -1.42108547e-14,4.29358925 -1.42108547e-14,9.59 L-1.42108547e-14,80.41 C-1.42108547e-14,85.7064108 4.29358925,90 9.59,90 C12.9223673,90 16.0156326,88.2693404 17.76,85.43 L36.58,57.5 C37.2126556,56.663698 37.0919456,55.4807537 36.3034122,54.7894728 C35.5148788,54.0981919 34.3263112,54.133336 33.58,54.87 L15.06,70.87 C14.8417404,71.0701508 14.5251729,71.1209055 14.2552817,70.9990191 C13.9853904,70.8771328 13.8141553,70.6060801 13.82,70.31 L13.82,20.07 C13.8230849,19.7573452 14.019811,19.4794074 14.3136562,19.3725545 C14.6075014,19.2657017 14.9368063,19.3523556 15.14,19.59 L71.14,86.59 C72.9633309,88.7475853 75.6451624,89.9915453 78.47,89.99 L80.47,89.99 C83.0134261,89.99 85.4526802,88.9796279 87.251154,87.181154 C89.0496279,85.3826802 90.06,82.9434261 90.06,80.4 L90.06,9.59 C90.06,7.03614398 89.0414458,4.58775291 87.2299741,2.7875443 C85.4185025,0.987335688 82.963806,-0.0159782446 80.41,-0.000187961334 C77.0776327,-0.000187961334 73.9843674,1.73065956 72.24,4.57 L72.24,4.57 Z" id="Path" fill="#000000" fill-rule="nonzero"></path>
    </g>
</svg>